<svg width="20" height="20" viewBox="0 0 20 20" fill="none" xmlns="http://www.w3.org/2000/svg">
<path fill-rule="evenodd" clip-rule="evenodd" d="M10 3.33333C5.83333 3.33333 2.275 5.925 0.833334 9.58333C2.275 13.2417 5.83333 15.8333 10 15.8333C14.1667 15.8333 17.725 13.2417 19.1667 9.58333C17.725 5.925 14.1667 3.33333 10 3.33333ZM10 13.75C7.7 13.75 5.83333 11.8833 5.83333 9.58333C5.83333 7.28333 7.7 5.41667 10 5.41667C12.3 5.41667 14.1667 7.28333 14.1667 9.58333C14.1667 11.8833 12.3 13.75 10 13.75ZM10 7.08333C8.61667 7.08333 7.5 8.2 7.5 9.58333C7.5 10.9667 8.61667 12.0833 10 12.0833C11.3833 12.0833 12.5 10.9667 12.5 9.58333C12.5 8.2 11.3833 7.08333 10 7.08333Z" fill="#181C43"/>
</svg>
