<svg width="256" height="121" viewBox="0 0 256 121" fill="none" xmlns="http://www.w3.org/2000/svg">
<g filter="url(#filter0_d)">
<path fill-rule="evenodd" clip-rule="evenodd" d="M44 26C39.5817 26 36 29.5817 36 34V63C36 67.4183 39.5817 71 44 71H200.798C201.393 71 201.957 71.2649 202.337 71.7227L204.099 73.8451C204.899 74.8086 206.377 74.8086 207.177 73.8451L208.938 71.7227C209.318 71.2649 209.882 71 210.477 71H212C216.418 71 220 67.4183 220 63V34C220 29.5817 216.418 26 212 26H44Z" fill="#1E1A3E"/>
</g>
<path d="M50.2658 46H51.1465V43.3438H52.7374C54.4313 43.3438 55.1948 42.3139 55.1948 41.0284C55.1948 39.7429 54.4313 38.7273 52.7232 38.7273H50.2658V46ZM51.1465 42.5625V39.5085H52.6948C53.8773 39.5085 54.3283 40.1548 54.3283 41.0284C54.3283 41.902 53.8773 42.5625 52.709 42.5625H51.1465ZM57.705 46.1278C58.6567 46.1278 59.1538 45.6165 59.3243 45.2614H59.3669V46H60.205V42.4062C60.205 40.6733 58.8839 40.4744 58.1879 40.4744C57.3641 40.4744 56.4266 40.7585 56.0004 41.7528L56.7959 42.0369C56.9805 41.6392 57.4173 41.2131 58.2163 41.2131C58.9869 41.2131 59.3669 41.6214 59.3669 42.321V42.3494C59.3669 42.7543 58.955 42.7188 57.9607 42.8466C56.9486 42.978 55.8442 43.2017 55.8442 44.4517C55.8442 45.517 56.668 46.1278 57.705 46.1278ZM57.8328 45.375C57.1652 45.375 56.6822 45.0767 56.6822 44.4943C56.6822 43.8551 57.2646 43.6562 57.918 43.571C58.2732 43.5284 59.2249 43.429 59.3669 43.2585V44.0256C59.3669 44.7074 58.8271 45.375 57.8328 45.375ZM65.1983 41.767C64.9355 40.9929 64.346 40.4744 63.2664 40.4744C62.1159 40.4744 61.2636 41.1278 61.2636 42.0511C61.2636 42.804 61.711 43.3082 62.7125 43.5426L63.6216 43.7557C64.172 43.8835 64.4312 44.1463 64.4312 44.5227C64.4312 44.9915 63.9341 45.375 63.1528 45.375C62.4674 45.375 62.0377 45.0803 61.8886 44.4943L61.0931 44.6932C61.2885 45.62 62.052 46.1136 63.167 46.1136C64.4348 46.1136 65.2977 45.4212 65.2977 44.4801C65.2977 43.7202 64.8218 43.2408 63.8488 43.0028L63.0392 42.804C62.3929 42.6442 62.1017 42.4276 62.1017 42.0085C62.1017 41.5398 62.5988 41.1989 63.2664 41.1989C63.998 41.1989 64.2998 41.6037 64.4454 41.9801L65.1983 41.767ZM70.0229 41.767C69.7601 40.9929 69.1706 40.4744 68.091 40.4744C66.9405 40.4744 66.0882 41.1278 66.0882 42.0511C66.0882 42.804 66.5357 43.3082 67.5371 43.5426L68.4462 43.7557C68.9966 43.8835 69.2558 44.1463 69.2558 44.5227C69.2558 44.9915 68.7587 45.375 67.9774 45.375C67.292 45.375 66.8624 45.0803 66.7132 44.4943L65.9178 44.6932C66.1131 45.62 66.8766 46.1136 67.9916 46.1136C69.2594 46.1136 70.1223 45.4212 70.1223 44.4801C70.1223 43.7202 69.6464 43.2408 68.6734 43.0028L67.8638 42.804C67.2175 42.6442 66.9263 42.4276 66.9263 42.0085C66.9263 41.5398 67.4234 41.1989 68.091 41.1989C68.8226 41.1989 69.1244 41.6037 69.27 41.9801L70.0229 41.767ZM72.2196 46H73.0435L74.2367 41.8097H74.3219L75.5151 46H76.339L78.0009 40.5455H77.1202L75.9412 44.7074H75.8844L74.7338 40.5455H73.839L72.6742 44.7216H72.6174L71.4384 40.5455H70.5577L72.2196 46ZM80.7392 46.1136C82.2165 46.1136 83.2108 44.9915 83.2108 43.3011C83.2108 41.5966 82.2165 40.4744 80.7392 40.4744C79.2619 40.4744 78.2676 41.5966 78.2676 43.3011C78.2676 44.9915 79.2619 46.1136 80.7392 46.1136ZM80.7392 45.3608C79.617 45.3608 79.1057 44.3949 79.1057 43.3011C79.1057 42.2074 79.617 41.2273 80.7392 41.2273C81.8614 41.2273 82.3727 42.2074 82.3727 43.3011C82.3727 44.3949 81.8614 45.3608 80.7392 45.3608ZM84.0901 46H84.9282V42.5483C84.9282 41.8097 85.5105 41.2699 86.306 41.2699C86.5297 41.2699 86.7605 41.3125 86.8174 41.3267V40.4744C86.7215 40.4673 86.5013 40.4602 86.377 40.4602C85.7236 40.4602 85.1554 40.8295 84.9566 41.3693H84.8997V40.5455H84.0901V46ZM89.3044 46.1136C90.3556 46.1136 90.7107 45.4602 90.8953 45.1619H90.9948V46H91.8044V38.7273H90.9664V41.4119H90.8953C90.7107 41.1278 90.384 40.4744 89.3186 40.4744C87.9408 40.4744 86.9891 41.5682 86.9891 43.2869C86.9891 45.0199 87.9408 46.1136 89.3044 46.1136ZM89.4181 45.3608C88.3669 45.3608 87.8272 44.4375 87.8272 43.2727C87.8272 42.1222 88.3527 41.2273 89.4181 41.2273C90.4408 41.2273 90.9806 42.0511 90.9806 43.2727C90.9806 44.5085 90.4266 45.3608 89.4181 45.3608ZM95.4682 46H96.3063V42.5909C96.3063 41.7919 96.8887 41.2273 97.5421 41.2273C98.1777 41.2273 98.6216 41.6428 98.6216 42.2642V46H99.4739V42.4489C99.4739 41.7457 99.9142 41.2273 100.681 41.2273C101.278 41.2273 101.789 41.5433 101.789 42.3494V46H102.627V42.3494C102.627 41.0675 101.938 40.4744 100.965 40.4744C100.184 40.4744 99.6124 40.8331 99.3319 41.3977H99.275C99.0051 40.8153 98.5293 40.4744 97.812 40.4744C97.1017 40.4744 96.5762 40.8153 96.3489 41.3977H96.2779V40.5455H95.4682V46ZM107.197 43.7699C107.197 44.7926 106.416 45.2614 105.791 45.2614C105.095 45.2614 104.598 44.75 104.598 43.9545V40.5455H103.76V44.0114C103.76 45.4034 104.498 46.071 105.521 46.071C106.345 46.071 106.885 45.6307 107.14 45.0767H107.197V46H108.035V40.5455H107.197V43.7699ZM113.034 41.767C112.771 40.9929 112.182 40.4744 111.102 40.4744C109.951 40.4744 109.099 41.1278 109.099 42.0511C109.099 42.804 109.547 43.3082 110.548 43.5426L111.457 43.7557C112.008 43.8835 112.267 44.1463 112.267 44.5227C112.267 44.9915 111.77 45.375 110.988 45.375C110.303 45.375 109.873 45.0803 109.724 44.4943L108.929 44.6932C109.124 45.62 109.887 46.1136 111.003 46.1136C112.27 46.1136 113.133 45.4212 113.133 44.4801C113.133 43.7202 112.657 43.2408 111.684 43.0028L110.875 42.804C110.228 42.6442 109.937 42.4276 109.937 42.0085C109.937 41.5398 110.434 41.1989 111.102 41.1989C111.834 41.1989 112.135 41.6037 112.281 41.9801L113.034 41.767ZM116.367 40.5455H115.202V39.2386H114.364V40.5455H113.54V41.2557H114.364V44.6648C114.364 45.6165 115.131 46.071 115.841 46.071C116.154 46.071 116.353 46.0142 116.466 45.9716L116.296 45.2188C116.225 45.233 116.111 45.2614 115.927 45.2614C115.557 45.2614 115.202 45.1477 115.202 44.4375V41.2557H116.367V40.5455ZM121.856 46.1136C123.063 46.1136 123.859 45.375 124.001 44.4091H123.163C123.007 45.0057 122.509 45.3608 121.856 45.3608C120.862 45.3608 120.222 44.5369 120.222 43.2727C120.222 42.0369 120.876 41.2273 121.856 41.2273C122.595 41.2273 123.035 41.6818 123.163 42.179H124.001C123.859 41.1562 122.992 40.4744 121.842 40.4744C120.365 40.4744 119.384 41.6392 119.384 43.3011C119.384 44.9347 120.322 46.1136 121.856 46.1136ZM127.042 46.1136C128.519 46.1136 129.514 44.9915 129.514 43.3011C129.514 41.5966 128.519 40.4744 127.042 40.4744C125.565 40.4744 124.57 41.5966 124.57 43.3011C124.57 44.9915 125.565 46.1136 127.042 46.1136ZM127.042 45.3608C125.92 45.3608 125.408 44.3949 125.408 43.3011C125.408 42.2074 125.92 41.2273 127.042 41.2273C128.164 41.2273 128.675 42.2074 128.675 43.3011C128.675 44.3949 128.164 45.3608 127.042 45.3608ZM131.231 42.7188C131.231 41.767 131.82 41.2273 132.623 41.2273C133.401 41.2273 133.873 41.7351 133.873 42.5909V46H134.711V42.5341C134.711 41.142 133.969 40.4744 132.864 40.4744C132.041 40.4744 131.529 40.8438 131.274 41.3977H131.202V40.5455H130.393V46H131.231V42.7188ZM138.215 40.5455H137.05V39.2386H136.212V40.5455H135.388V41.2557H136.212V44.6648C136.212 45.6165 136.979 46.071 137.689 46.071C138.002 46.071 138.2 46.0142 138.314 45.9716L138.144 45.2188C138.073 45.233 137.959 45.2614 137.774 45.2614C137.405 45.2614 137.05 45.1477 137.05 44.4375V41.2557H138.215V40.5455ZM140.68 46.1278C141.632 46.1278 142.129 45.6165 142.3 45.2614H142.342V46H143.18V42.4062C143.18 40.6733 141.859 40.4744 141.163 40.4744C140.339 40.4744 139.402 40.7585 138.976 41.7528L139.771 42.0369C139.956 41.6392 140.393 41.2131 141.192 41.2131C141.962 41.2131 142.342 41.6214 142.342 42.321V42.3494C142.342 42.7543 141.93 42.7188 140.936 42.8466C139.924 42.978 138.82 43.2017 138.82 44.4517C138.82 45.517 139.643 46.1278 140.68 46.1278ZM140.808 45.375C140.141 45.375 139.658 45.0767 139.658 44.4943C139.658 43.8551 140.24 43.6562 140.893 43.571C141.249 43.5284 142.2 43.429 142.342 43.2585V44.0256C142.342 44.7074 141.803 45.375 140.808 45.375ZM144.31 46H145.148V40.5455H144.31V46ZM144.736 39.6364C145.063 39.6364 145.333 39.3807 145.333 39.0682C145.333 38.7557 145.063 38.5 144.736 38.5C144.409 38.5 144.14 38.7557 144.14 39.0682C144.14 39.3807 144.409 39.6364 144.736 39.6364ZM147.121 42.7188C147.121 41.767 147.711 41.2273 148.513 41.2273C149.291 41.2273 149.763 41.7351 149.763 42.5909V46H150.601V42.5341C150.601 41.142 149.859 40.4744 148.755 40.4744C147.931 40.4744 147.419 40.8438 147.164 41.3977H147.093V40.5455H146.283V46H147.121V42.7188ZM156.461 46.0994C157.913 46.0994 158.925 45.2507 158.932 44.0682C158.925 43.1484 158.311 42.3672 157.526 42.2216V42.179C158.208 42.0014 158.655 41.3338 158.662 40.5597C158.655 39.4517 157.725 38.6278 156.461 38.6278C155.182 38.6278 154.252 39.4517 154.259 40.5597C154.252 41.3338 154.699 42.0014 155.395 42.179V42.2216C154.596 42.3672 153.982 43.1484 153.989 44.0682C153.982 45.2507 154.994 46.0994 156.461 46.0994ZM156.461 45.3182C155.463 45.3182 154.848 44.8068 154.855 44.0256C154.848 43.2053 155.527 42.6193 156.461 42.6193C157.38 42.6193 158.059 43.2053 158.066 44.0256C158.059 44.8068 157.444 45.3182 156.461 45.3182ZM156.461 41.8665C155.665 41.8665 155.104 41.3693 155.111 40.6165C155.104 39.8778 155.644 39.3949 156.461 39.3949C157.263 39.3949 157.803 39.8778 157.81 40.6165C157.803 41.3693 157.242 41.8665 156.461 41.8665ZM162.038 45.5028H162.833V43.5568H164.779V42.7614H162.833V40.8153H162.038V42.7614H160.092V43.5568H162.038V45.5028ZM172.375 41.767C172.112 40.9929 171.523 40.4744 170.443 40.4744C169.293 40.4744 168.441 41.1278 168.441 42.0511C168.441 42.804 168.888 43.3082 169.889 43.5426L170.799 43.7557C171.349 43.8835 171.608 44.1463 171.608 44.5227C171.608 44.9915 171.111 45.375 170.33 45.375C169.644 45.375 169.215 45.0803 169.066 44.4943L168.27 44.6932C168.465 45.62 169.229 46.1136 170.344 46.1136C171.612 46.1136 172.475 45.4212 172.475 44.4801C172.475 43.7202 171.999 43.2408 171.026 43.0028L170.216 42.804C169.57 42.6442 169.279 42.4276 169.279 42.0085C169.279 41.5398 169.776 41.1989 170.443 41.1989C171.175 41.1989 171.477 41.6037 171.622 41.9801L172.375 41.767ZM173.876 48.0312C174.632 48.0312 175.169 47.63 175.481 46.7955L177.804 40.5597L176.887 40.5455L175.382 44.892H175.325L173.819 40.5455H172.91L174.927 46.0284L174.771 46.4545C174.473 47.2713 174.089 47.3494 173.478 47.1932L173.265 47.9318C173.35 47.9744 173.592 48.0312 173.876 48.0312ZM178.512 46H179.35V42.5909C179.35 41.7919 179.933 41.2273 180.586 41.2273C181.222 41.2273 181.666 41.6428 181.666 42.2642V46H182.518V42.4489C182.518 41.7457 182.958 41.2273 183.725 41.2273C184.322 41.2273 184.833 41.5433 184.833 42.3494V46H185.671V42.3494C185.671 41.0675 184.983 40.4744 184.01 40.4744C183.228 40.4744 182.657 40.8331 182.376 41.3977H182.319C182.049 40.8153 181.573 40.4744 180.856 40.4744C180.146 40.4744 179.62 40.8153 179.393 41.3977H179.322V40.5455H178.512V46ZM186.917 46H187.727V45.1619H187.826C188.011 45.4602 188.366 46.1136 189.417 46.1136C190.781 46.1136 191.733 45.0199 191.733 43.2869C191.733 41.5682 190.781 40.4744 189.403 40.4744C188.338 40.4744 188.011 41.1278 187.826 41.4119H187.755V38.7273H186.917V46ZM187.741 43.2727C187.741 42.0511 188.281 41.2273 189.304 41.2273C190.369 41.2273 190.895 42.1222 190.895 43.2727C190.895 44.4375 190.355 45.3608 189.304 45.3608C188.295 45.3608 187.741 44.5085 187.741 43.2727ZM194.831 46.1136C196.308 46.1136 197.302 44.9915 197.302 43.3011C197.302 41.5966 196.308 40.4744 194.831 40.4744C193.353 40.4744 192.359 41.5966 192.359 43.3011C192.359 44.9915 193.353 46.1136 194.831 46.1136ZM194.831 45.3608C193.708 45.3608 193.197 44.3949 193.197 43.3011C193.197 42.2074 193.708 41.2273 194.831 41.2273C195.953 41.2273 196.464 42.2074 196.464 43.3011C196.464 44.3949 195.953 45.3608 194.831 45.3608ZM199.02 38.7273H198.182V46H199.02V38.7273ZM204.018 41.767C203.755 40.9929 203.166 40.4744 202.086 40.4744C200.936 40.4744 200.084 41.1278 200.084 42.0511C200.084 42.804 200.531 43.3082 201.532 43.5426L202.441 43.7557C202.992 43.8835 203.251 44.1463 203.251 44.5227C203.251 44.9915 202.754 45.375 201.973 45.375C201.287 45.375 200.858 45.0803 200.709 44.4943L199.913 44.6932C200.108 45.62 200.872 46.1136 201.987 46.1136C203.255 46.1136 204.118 45.4212 204.118 44.4801C204.118 43.7202 203.642 43.2408 202.669 43.0028L201.859 42.804C201.213 42.6442 200.922 42.4276 200.922 42.0085C200.922 41.5398 201.419 41.1989 202.086 41.1989C202.818 41.1989 203.12 41.6037 203.265 41.9801L204.018 41.767ZM206.229 45.0057H205.32L205.277 45.4034C205.174 46.3658 204.972 47.3246 204.88 47.7756H205.519C205.689 47.2926 206.052 46.1989 206.172 45.3892L206.229 45.0057ZM68.9794 52.7273H68.0987L66.2805 53.9347V54.8295L68.0561 53.6506H68.0987V60H68.9794V52.7273ZM76.9613 55.767C76.6986 54.9929 76.1091 54.4744 75.0295 54.4744C73.879 54.4744 73.0267 55.1278 73.0267 56.0511C73.0267 56.804 73.4741 57.3082 74.4756 57.5426L75.3846 57.7557C75.9351 57.8835 76.1943 58.1463 76.1943 58.5227C76.1943 58.9915 75.6971 59.375 74.9159 59.375C74.2305 59.375 73.8008 59.0803 73.6517 58.4943L72.8562 58.6932C73.0515 59.62 73.815 60.1136 74.9301 60.1136C76.1979 60.1136 77.0608 59.4212 77.0608 58.4801C77.0608 57.7202 76.5849 57.2408 75.6119 57.0028L74.8023 56.804C74.1559 56.6442 73.8648 56.4276 73.8648 56.0085C73.8648 55.5398 74.3619 55.1989 75.0295 55.1989C75.7611 55.1989 76.0629 55.6037 76.2085 55.9801L76.9613 55.767ZM77.9223 62.0455H78.7604V59.1619H78.8314C79.0161 59.4602 79.3712 60.1136 80.4223 60.1136C81.786 60.1136 82.7377 59.0199 82.7377 57.2869C82.7377 55.5682 81.786 54.4744 80.4081 54.4744C79.3428 54.4744 79.0161 55.1278 78.8314 55.4119H78.732V54.5455H77.9223V62.0455ZM78.7462 57.2727C78.7462 56.0511 79.286 55.2273 80.3087 55.2273C81.374 55.2273 81.8996 56.1222 81.8996 57.2727C81.8996 58.4375 81.3598 59.3608 80.3087 59.3608C79.3002 59.3608 78.7462 58.5085 78.7462 57.2727ZM85.903 60.1136C87.011 60.1136 87.8206 59.5597 88.0763 58.7358L87.2666 58.5085C87.0536 59.0767 86.56 59.3608 85.903 59.3608C84.9193 59.3608 84.2411 58.7251 84.202 57.5568H88.1615V57.2017C88.1615 55.1705 86.9541 54.4744 85.8178 54.4744C84.3405 54.4744 83.3604 55.6392 83.3604 57.3153C83.3604 58.9915 84.3263 60.1136 85.903 60.1136ZM84.202 56.8324C84.2588 55.9837 84.859 55.2273 85.8178 55.2273C86.7269 55.2273 87.3092 55.9091 87.3092 56.8324H84.202ZM91.2523 60.1136C92.4597 60.1136 93.2551 59.375 93.3972 58.4091H92.5591C92.4029 59.0057 91.9057 59.3608 91.2523 59.3608C90.258 59.3608 89.6188 58.5369 89.6188 57.2727C89.6188 56.0369 90.2722 55.2273 91.2523 55.2273C91.9909 55.2273 92.4313 55.6818 92.5591 56.179H93.3972C93.2551 55.1562 92.3887 54.4744 91.2381 54.4744C89.7608 54.4744 88.7807 55.6392 88.7807 57.3011C88.7807 58.9347 89.7182 60.1136 91.2523 60.1136ZM94.2223 60H95.0604V54.5455H94.2223V60ZM94.6485 53.6364C94.9752 53.6364 95.245 53.3807 95.245 53.0682C95.245 52.7557 94.9752 52.5 94.6485 52.5C94.3218 52.5 94.0519 52.7557 94.0519 53.0682C94.0519 53.3807 94.3218 53.6364 94.6485 53.6364ZM97.8005 60.1278C98.7522 60.1278 99.2493 59.6165 99.4198 59.2614H99.4624V60H100.3V56.4062C100.3 54.6733 98.9795 54.4744 98.2834 54.4744C97.4596 54.4744 96.5221 54.7585 96.0959 55.7528L96.8914 56.0369C97.076 55.6392 97.5128 55.2131 98.3118 55.2131C99.0824 55.2131 99.4624 55.6214 99.4624 56.321V56.3494C99.4624 56.7543 99.0505 56.7188 98.0562 56.8466C97.0441 56.978 95.9397 57.2017 95.9397 58.4517C95.9397 59.517 96.7635 60.1278 97.8005 60.1278ZM97.9283 59.375C97.2607 59.375 96.7778 59.0767 96.7778 58.4943C96.7778 57.8551 97.3601 57.6562 98.0135 57.571C98.3687 57.5284 99.3204 57.429 99.4624 57.2585V58.0256C99.4624 58.7074 98.9226 59.375 97.9283 59.375ZM102.268 52.7273H101.43V60H102.268V52.7273ZM107.421 60.1278C108.372 60.1278 108.87 59.6165 109.04 59.2614H109.083V60H109.921V56.4062C109.921 54.6733 108.6 54.4744 107.904 54.4744C107.08 54.4744 106.142 54.7585 105.716 55.7528L106.512 56.0369C106.696 55.6392 107.133 55.2131 107.932 55.2131C108.703 55.2131 109.083 55.6214 109.083 56.321V56.3494C109.083 56.7543 108.671 56.7188 107.676 56.8466C106.664 56.978 105.56 57.2017 105.56 58.4517C105.56 59.517 106.384 60.1278 107.421 60.1278ZM107.549 59.375C106.881 59.375 106.398 59.0767 106.398 58.4943C106.398 57.8551 106.98 57.6562 107.634 57.571C107.989 57.5284 108.941 57.429 109.083 57.2585V58.0256C109.083 58.7074 108.543 59.375 107.549 59.375ZM111.889 56.7188C111.889 55.767 112.478 55.2273 113.281 55.2273C114.058 55.2273 114.531 55.7351 114.531 56.5909V60H115.369V56.5341C115.369 55.142 114.626 54.4744 113.522 54.4744C112.698 54.4744 112.187 54.8438 111.931 55.3977H111.86V54.5455H111.05V60H111.889V56.7188ZM118.56 60.1136C119.611 60.1136 119.966 59.4602 120.151 59.1619H120.25V60H121.06V52.7273H120.222V55.4119H120.151C119.966 55.1278 119.639 54.4744 118.574 54.4744C117.196 54.4744 116.244 55.5682 116.244 57.2869C116.244 59.0199 117.196 60.1136 118.56 60.1136ZM118.673 59.3608C117.622 59.3608 117.082 58.4375 117.082 57.2727C117.082 56.1222 117.608 55.2273 118.673 55.2273C119.696 55.2273 120.236 56.0511 120.236 57.2727C120.236 58.5085 119.682 59.3608 118.673 59.3608ZM124.709 60H129.297V59.2188H125.917V59.1619L127.55 57.4148C128.8 56.076 129.17 55.451 129.17 54.6449C129.17 53.5227 128.26 52.6278 126.982 52.6278C125.707 52.6278 124.738 53.4943 124.738 54.7727H125.576C125.576 53.9453 126.112 53.3949 126.954 53.3949C127.742 53.3949 128.346 53.8778 128.346 54.6449C128.346 55.3161 127.951 55.8132 127.11 56.733L124.709 59.3608V60ZM135.007 60.1136C136.214 60.1136 137.009 59.375 137.151 58.4091H136.313C136.157 59.0057 135.66 59.3608 135.007 59.3608C134.012 59.3608 133.373 58.5369 133.373 57.2727C133.373 56.0369 134.026 55.2273 135.007 55.2273C135.745 55.2273 136.186 55.6818 136.313 56.179H137.151C137.009 55.1562 136.143 54.4744 134.992 54.4744C133.515 54.4744 132.535 55.6392 132.535 57.3011C132.535 58.9347 133.472 60.1136 135.007 60.1136ZM139.582 60.1278C140.533 60.1278 141.031 59.6165 141.201 59.2614H141.244V60H142.082V56.4062C142.082 54.6733 140.761 54.4744 140.065 54.4744C139.241 54.4744 138.303 54.7585 137.877 55.7528L138.673 56.0369C138.857 55.6392 139.294 55.2131 140.093 55.2131C140.864 55.2131 141.244 55.6214 141.244 56.321V56.3494C141.244 56.7543 140.832 56.7188 139.837 56.8466C138.825 56.978 137.721 57.2017 137.721 58.4517C137.721 59.517 138.545 60.1278 139.582 60.1278ZM139.71 59.375C139.042 59.375 138.559 59.0767 138.559 58.4943C138.559 57.8551 139.141 57.6562 139.795 57.571C140.15 57.5284 141.102 57.429 141.244 57.2585V58.0256C141.244 58.7074 140.704 59.375 139.71 59.375ZM143.211 62.0455H144.049V59.1619H144.12C144.305 59.4602 144.66 60.1136 145.711 60.1136C147.075 60.1136 148.027 59.0199 148.027 57.2869C148.027 55.5682 147.075 54.4744 145.697 54.4744C144.632 54.4744 144.305 55.1278 144.12 55.4119H144.021V54.5455H143.211V62.0455ZM144.035 57.2727C144.035 56.0511 144.575 55.2273 145.598 55.2273C146.663 55.2273 147.189 56.1222 147.189 57.2727C147.189 58.4375 146.649 59.3608 145.598 59.3608C144.589 59.3608 144.035 58.5085 144.035 57.2727ZM148.905 60H149.743V54.5455H148.905V60ZM149.331 53.6364C149.658 53.6364 149.928 53.3807 149.928 53.0682C149.928 52.7557 149.658 52.5 149.331 52.5C149.005 52.5 148.735 52.7557 148.735 53.0682C148.735 53.3807 149.005 53.6364 149.331 53.6364ZM153.25 54.5455H152.086V53.2386H151.247V54.5455H150.424V55.2557H151.247V58.6648C151.247 59.6165 152.015 60.071 152.725 60.071C153.037 60.071 153.236 60.0142 153.35 59.9716L153.179 59.2188C153.108 59.233 152.995 59.2614 152.81 59.2614C152.441 59.2614 152.086 59.1477 152.086 58.4375V55.2557H153.25V54.5455ZM155.716 60.1278C156.668 60.1278 157.165 59.6165 157.335 59.2614H157.378V60H158.216V56.4062C158.216 54.6733 156.895 54.4744 156.199 54.4744C155.375 54.4744 154.438 54.7585 154.012 55.7528L154.807 56.0369C154.992 55.6392 155.428 55.2131 156.227 55.2131C156.998 55.2131 157.378 55.6214 157.378 56.321V56.3494C157.378 56.7543 156.966 56.7188 155.972 56.8466C154.96 56.978 153.855 57.2017 153.855 58.4517C153.855 59.517 154.679 60.1278 155.716 60.1278ZM155.844 59.375C155.176 59.375 154.693 59.0767 154.693 58.4943C154.693 57.8551 155.276 57.6562 155.929 57.571C156.284 57.5284 157.236 57.429 157.378 57.2585V58.0256C157.378 58.7074 156.838 59.375 155.844 59.375ZM160.184 52.7273H159.346V60H160.184V52.7273ZM164.569 52.7273H163.731V60H164.569V52.7273ZM167.991 60.1136C169.099 60.1136 169.909 59.5597 170.165 58.7358L169.355 58.5085C169.142 59.0767 168.648 59.3608 167.991 59.3608C167.008 59.3608 166.329 58.7251 166.29 57.5568H170.25V57.2017C170.25 55.1705 169.042 54.4744 167.906 54.4744C166.429 54.4744 165.449 55.6392 165.449 57.3153C165.449 58.9915 166.415 60.1136 167.991 60.1136ZM166.29 56.8324C166.347 55.9837 166.947 55.2273 167.906 55.2273C168.815 55.2273 169.398 55.9091 169.398 56.8324H166.29ZM173.497 54.5455H172.332V53.2386H171.494V54.5455H170.67V55.2557H171.494V58.6648C171.494 59.6165 172.261 60.071 172.971 60.071C173.284 60.071 173.483 60.0142 173.596 59.9716L173.426 59.2188C173.355 59.233 173.241 59.2614 173.056 59.2614C172.687 59.2614 172.332 59.1477 172.332 58.4375V55.2557H173.497V54.5455ZM176.73 54.5455H175.565V53.2386H174.727V54.5455H173.903V55.2557H174.727V58.6648C174.727 59.6165 175.494 60.071 176.204 60.071C176.517 60.071 176.715 60.0142 176.829 59.9716L176.659 59.2188C176.588 59.233 176.474 59.2614 176.289 59.2614C175.92 59.2614 175.565 59.1477 175.565 58.4375V55.2557H176.73V54.5455ZM179.819 60.1136C180.927 60.1136 181.736 59.5597 181.992 58.7358L181.182 58.5085C180.969 59.0767 180.476 59.3608 179.819 59.3608C178.835 59.3608 178.157 58.7251 178.118 57.5568H182.077V57.2017C182.077 55.1705 180.87 54.4744 179.733 54.4744C178.256 54.4744 177.276 55.6392 177.276 57.3153C177.276 58.9915 178.242 60.1136 179.819 60.1136ZM178.118 56.8324C178.174 55.9837 178.775 55.2273 179.733 55.2273C180.642 55.2273 181.225 55.9091 181.225 56.8324H178.118ZM182.952 60H183.79V56.5483C183.79 55.8097 184.372 55.2699 185.168 55.2699C185.392 55.2699 185.622 55.3125 185.679 55.3267V54.4744C185.583 54.4673 185.363 54.4602 185.239 54.4602C184.586 54.4602 184.017 54.8295 183.818 55.3693H183.762V54.5455H182.952V60ZM190.136 55.767C189.874 54.9929 189.284 54.4744 188.205 54.4744C187.054 54.4744 186.202 55.1278 186.202 56.0511C186.202 56.804 186.649 57.3082 187.651 57.5426L188.56 57.7557C189.11 57.8835 189.369 58.1463 189.369 58.5227C189.369 58.9915 188.872 59.375 188.091 59.375C187.406 59.375 186.976 59.0803 186.827 58.4943L186.031 58.6932C186.227 59.62 186.99 60.1136 188.105 60.1136C189.373 60.1136 190.236 59.4212 190.236 58.4801C190.236 57.7202 189.76 57.2408 188.787 57.0028L187.977 56.804C187.331 56.6442 187.04 56.4276 187.04 56.0085C187.04 55.5398 187.537 55.1989 188.205 55.1989C188.936 55.1989 189.238 55.6037 189.384 55.9801L190.136 55.767Z" fill="#F3F3F3"/>
<defs>
<filter id="filter0_d" x="0" y="0" width="256" height="120.568" filterUnits="userSpaceOnUse" color-interpolation-filters="sRGB">
<feFlood flood-opacity="0" result="BackgroundImageFix"/>
<feColorMatrix in="SourceAlpha" type="matrix" values="0 0 0 0 0 0 0 0 0 0 0 0 0 0 0 0 0 0 127 0"/>
<feOffset dy="10"/>
<feGaussianBlur stdDeviation="18"/>
<feColorMatrix type="matrix" values="0 0 0 0 0 0 0 0 0 0 0 0 0 0 0 0 0 0 0.1 0"/>
<feBlend mode="normal" in2="BackgroundImageFix" result="effect1_dropShadow"/>
<feBlend mode="normal" in="SourceGraphic" in2="effect1_dropShadow" result="shape"/>
</filter>
</defs>
</svg>
